<svg id="Calque_1" data-name="Calque 1" xmlns="http://www.w3.org/2000/svg" viewBox="0 0 462.55 85.88"><defs><style>.cls-1{fill:#fff;}</style></defs><title>LaSalle-LogoBlanc</title><path class="cls-1" d="M.77,85.53,12.44,2h3L4.07,82.58H45.83l-.35,3Z" transform="translate(-0.77 -0.83)"/><path class="cls-1" d="M116,85.53h-3.19L106,55.69H67.42L52.67,85.53H49.49L91.84,2h5.31Zm-10.5-32.79L94.67,4.25H94L69,52.74Z" transform="translate(-0.77 -0.83)"/><path class="cls-1" d="M137.14,59.11c3.65,5.31,10.61,8,16.87,8,5.66,0,10.61-2,11.44-6.37.94-5.19-6.37-7.43-13.1-8.38C139.26,50.26,127.46,39.76,130.41,24,133.6,6.85,148.7.83,164,.83c10.15,0,19.59,2.83,26.78,13.33L175.48,24.78c-3.54-4-9.09-5.9-13.92-6-5.31-.11-9.8,1.89-10.27,6.14-.59,4.83,3.66,7,10,8.37,14.51,2.72,28.67,8.26,24.77,29C183,78.57,168.87,86.71,150.82,86.71c-10,0-22.41-5.07-28.78-15.1Z" transform="translate(-0.77 -0.83)"/><path class="cls-1" d="M261.36,85.53H238.71l-3.19-16.75H213.23l-7.44,16.75H183.15L224,2h19.23ZM233.16,50l-2.47-24.41h-.83L220.66,50Z" transform="translate(-0.77 -0.83)"/><path class="cls-1" d="M278.46,2H299.7l-8.85,62.64h34L322,85.53h-55.2Z" transform="translate(-0.77 -0.83)"/><path class="cls-1" d="M341.81,2h21.24L354.2,64.65h34l-2.83,20.88H330.13Z" transform="translate(-0.77 -0.83)"/><path class="cls-1" d="M421.91,34.33h33.86l-2.6,18.76H419.32L417.55,65.6h36.8l-2.71,19.93H393.48L405.16,2h58.16L460.49,22H423.68Z" transform="translate(-0.77 -0.83)"/></svg>