<svg id="Calque_1" data-name="Calque 1" xmlns="http://www.w3.org/2000/svg" viewBox="0 0 603.26 115.26"><defs><style>.cls-1{fill:#fff;}.cls-2{fill:#e41c39;}</style></defs><title>LaSalle-Logo</title><path class="cls-1" d="M180.69,79.88c4.74,6.87,13.76,10.39,21.86,10.39,7.33,0,13.75-2.6,14.82-8.25,1.23-6.73-8.25-9.63-17-10.86-17-2.75-32.25-16.35-28.43-36.83,4.13-22.16,23.69-29.95,43.56-29.95,13.14,0,25.37,3.66,34.69,17.27L230.37,35.4c-4.59-5.19-11.77-7.64-18-7.79-6.88-.16-12.68,2.44-13.3,7.94-.76,6.27,4.74,9,13,10.85,18.79,3.52,37.13,10.7,32.09,37.6-4,21.09-22.31,31.64-45.7,31.64-13,0-29-6.57-37.29-19.56Z" transform="translate(-0.02 -0.38)"/><path class="cls-1" d="M341.63,114.11H312.28l-4.12-21.7H279.27l-9.63,21.7H240.3L293.18,5.9h24.91Zm-36.53-46-3.21-31.64h-1.07L288.9,68.11Z" transform="translate(-0.02 -0.38)"/><path class="cls-1" d="M363.79,5.9H391.3L379.84,87.06h44l-3.66,27.05H348.66Z" transform="translate(-0.02 -0.38)"/><path class="cls-1" d="M445.86,5.9h27.51L461.91,87.06h44l-3.66,27.05H430.73Z" transform="translate(-0.02 -0.38)"/><path class="cls-1" d="M549.63,47.78H593.5l-3.37,24.3H546.27L544,88.28h47.68l-3.51,25.83H512.8L527.93,5.9h75.35l-3.67,25.83H551.93Z" transform="translate(-0.02 -0.38)"/><path class="cls-1" d="M0,110.11,15.15,1.9H19L4.3,106.29H58.4l-.46,3.82Z" transform="translate(-0.02 -0.38)"/><path class="cls-1" d="M149.34,110.11h-4.13l-8.86-38.67h-50l-19.1,38.67H63.14L118,1.9h6.87Zm-13.6-42.49L121.67,4.81h-.91L88.36,67.62Z" transform="translate(-0.02 -0.38)"/><path class="cls-2" d="M176.69,75.88c4.74,6.87,13.76,10.39,21.86,10.39,7.33,0,13.75-2.6,14.82-8.25,1.23-6.73-8.25-9.63-17-10.86-17-2.75-32.25-16.35-28.43-36.83C172.11,8.17,191.67.38,211.54.38c13.14,0,25.37,3.66,34.69,17.27L226.37,31.4c-4.59-5.19-11.77-7.64-18-7.79-6.88-.16-12.68,2.44-13.3,7.94-.76,6.27,4.74,9,13,10.85,18.79,3.52,37.13,10.7,32.09,37.6-4,21.09-22.31,31.64-45.7,31.64-13,0-29-6.57-37.29-19.56Z" transform="translate(-0.02 -0.38)"/><path class="cls-2" d="M337.63,110.11H308.28l-4.12-21.7H275.27l-9.63,21.7H236.3L289.18,1.9h24.91Zm-36.53-46-3.21-31.64h-1.07L284.9,64.11Z" transform="translate(-0.02 -0.38)"/><path class="cls-2" d="M359.79,1.9H387.3L375.84,83.06h44l-3.66,27.05H344.66Z" transform="translate(-0.02 -0.38)"/><path class="cls-2" d="M441.86,1.9h27.51L457.91,83.06h44l-3.66,27.05H426.73Z" transform="translate(-0.02 -0.38)"/><path class="cls-2" d="M545.63,43.78H589.5l-3.37,24.3H542.27L540,84.28h47.68l-3.51,25.83H508.8L523.93,1.9h75.35l-3.67,25.83H547.93Z" transform="translate(-0.02 -0.38)"/></svg>