<svg id="Calque_1" data-name="Calque 1" xmlns="http://www.w3.org/2000/svg" xmlns:xlink="http://www.w3.org/1999/xlink" viewBox="0 0 2977.63 500"><defs><style>.cls-1{fill:#fff;}.cls-2{fill:url(#Dégradé_sans_nom);}.cls-3{fill:url(#Dégradé_sans_nom-3);}.cls-4{fill:url(#Dégradé_sans_nom-5);}.cls-5{fill:url(#Dégradé_sans_nom-6);}.cls-6{fill:url(#Dégradé_sans_nom-8);}</style><linearGradient id="Dégradé_sans_nom" x1="178.33" y1="250" x2="2888.73" y2="250" gradientUnits="userSpaceOnUse"><stop offset="0" stop-color="#e41c39"/><stop offset="0.25" stop-color="#e43534"/><stop offset="1" stop-color="#e4b31c"/></linearGradient><linearGradient id="Dégradé_sans_nom-3" x1="178.33" y1="249.58" x2="2888.73" y2="249.58" xlink:href="#Dégradé_sans_nom"/><linearGradient id="Dégradé_sans_nom-5" x1="178.33" y1="252.08" x2="2888.73" y2="252.08" xlink:href="#Dégradé_sans_nom"/><linearGradient id="Dégradé_sans_nom-6" x1="178.33" y1="249.58" x2="2888.73" y2="249.58" xlink:href="#Dégradé_sans_nom"/><linearGradient id="Dégradé_sans_nom-8" x1="178.33" y1="249.38" x2="2888.73" y2="249.38" xlink:href="#Dégradé_sans_nom"/></defs><title>LaSalle-Bouton-Soumettre</title><rect class="cls-1" width="2977.63" height="500" rx="250" ry="250"/><g id="Calque_2" data-name="Calque 2"><path class="cls-2" d="M2884.3,243.23v13.54a29.6,29.6,0,0,1-29.52,29.5H2769v85.8a29.61,29.61,0,0,1-29.51,29.51H2726a29.61,29.61,0,0,1-29.51-29.51v-85.8h-85.78a29.6,29.6,0,0,1-29.51-29.5V243.23a29.6,29.6,0,0,1,29.51-29.5h85.78V127.94A29.61,29.61,0,0,1,2726,98.42h13.55A29.61,29.61,0,0,1,2769,127.94v85.79h85.77A29.6,29.6,0,0,1,2884.3,243.23Z" transform="translate(-5.09 0)"/><path class="cls-2" d="M2884.3,243.23v13.54a29.6,29.6,0,0,1-29.52,29.5H2769v85.8a29.61,29.61,0,0,1-29.51,29.51H2726a29.61,29.61,0,0,1-29.51-29.51v-85.8h-85.78a29.6,29.6,0,0,1-29.51-29.5V243.23a29.6,29.6,0,0,1,29.51-29.5h85.78V127.94A29.61,29.61,0,0,1,2726,98.42h13.55A29.61,29.61,0,0,1,2769,127.94v85.79h85.77A29.6,29.6,0,0,1,2884.3,243.23Z" transform="translate(-5.09 0)"/></g><path class="cls-3" d="M216.54,303.57c29.48,35.72,94.27,37.38,96.34,5.82.83-16.62-26.16-26.17-50.25-29.49-47.34-7.48-90.53-37.38-90.53-93.44,0-57.72,52.33-88,106.32-88,35.71,0,70.18,10,100.5,46.93l-48.59,37.37c-30.73-32.8-83.48-31.56-84.72,2.49.83,14.12,16.19,22.43,39,27.41C337,222.18,389.3,240.45,386,312.71c-2.5,56.89-62.3,88-116.29,88-35.3,0-72.67-17.86-100.08-53.16Z" transform="translate(-5.09 0)"/><path class="cls-3" d="M410.89,199.33c0-67.69,60.63-100.91,121.68-100.91s122.09,33.64,122.09,100.91v100.5c0,67.28-60.63,100.92-121.68,100.92S410.89,367.11,410.89,299.83Zm74.34,100.5c0,21.6,24.08,32,47.75,32s47.35-10.8,47.35-32V199.33c0-22.84-24.51-33.22-48.59-33.22-23.26,0-46.51,11.63-46.51,33.22Z" transform="translate(-5.09 0)"/><path class="cls-4" d="M767.62,298.17c0,47.35,83.89,47.35,84.3,0V102.57h75.17v195.6c-.42,137.88-235.05,137.88-234.64,0V102.57h75.17Z" transform="translate(-5.09 0)"/><path class="cls-5" d="M971.1,102.57h74.34l61.88,143.69,62.29-143.69H1244v294H1169.2l.41-84.72,4.57-59.39-2.49-.41L1133.07,353H1082l-39.46-100.91-2.07.41,5,59.39V396.6H971.1Z" transform="translate(-5.09 0)"/><path class="cls-5" d="M1365.62,218h119.19v64.37H1365.62v44h129.57V396.6H1290.46v-294h204.73v69.77H1365.62Z" transform="translate(-5.09 0)"/><path class="cls-6" d="M1670.44,172.76V396.6h-75.16V172.76H1517.2v-70.6h231.32v70.6Z" transform="translate(-5.09 0)"/><path class="cls-6" d="M1913.38,172.76V396.6h-75.17V172.76h-78.07v-70.6h231.32v70.6Z" transform="translate(-5.09 0)"/><path class="cls-5" d="M2109,303.16h-13.29V396.6h-75.17v-294h117.53c60.63,0,107.56,27.83,109.22,96.76,0,54.41-22,85.14-57.73,96.35l80.15,100.92h-92.6Zm30.31-64c46.93,0,46.93-67.27,0-67.27h-43.6V239.2Z" transform="translate(-5.09 0)"/><path class="cls-5" d="M2364,218h119.19v64.37H2364v44h129.57V396.6H2288.8v-294h204.73v69.77H2364Z" transform="translate(-5.09 0)"/></svg>