<svg id="Calque_1" data-name="Calque 1" xmlns="http://www.w3.org/2000/svg" viewBox="0 0 446.11 174.89"><defs><style>.cls-1{fill:#fff;}.cls-2{fill:#202124;}</style></defs><title>LaSalle-Logo-Compact</title><path class="cls-1" d="M0,60.26,8.2,1.52h2.09l-8,56.67H31.68l-.25,2.07Z" transform="translate(0.45 -1.52)"/><path class="cls-1" d="M81.05,60.26H78.81L74,39.27H46.85l-10.36,21H34.25L64,1.52h3.73ZM73.66,37.2,66,3.1h-.5L48,37.2Z" transform="translate(0.45 -1.52)"/><path class="cls-1" d="M23.07,140.65C27.81,147.52,36.83,151,44.93,151c7.33,0,13.75-2.6,14.82-8.25,1.23-6.73-8.25-9.63-17-10.86-17-2.75-32.25-16.35-28.43-36.83C18.45,72.94,38,65.15,57.88,65.15c13.14,0,25.37,3.66,34.69,17.27L72.75,96.17C68.16,91,61,88.53,54.75,88.38c-6.88-.16-12.68,2.44-13.3,7.94-.76,6.27,4.74,9,13,10.85,18.79,3.52,37.13,10.7,32.09,37.6-4,21.09-22.31,31.64-45.7,31.64-13,0-29-6.57-37.29-19.56Z" transform="translate(0.45 -1.52)"/><path class="cls-1" d="M184,174.88H154.66l-4.12-21.7H121.65L112,174.88H82.68L135.56,66.67h24.91Zm-36.53-46-3.21-31.64H143.2l-11.92,31.64Z" transform="translate(0.45 -1.52)"/><path class="cls-1" d="M206.17,66.67h27.51l-11.46,81.16h44l-3.66,27H191Z" transform="translate(0.45 -1.52)"/><path class="cls-1" d="M288.24,66.67h27.51l-11.46,81.16h44l-3.66,27H273.11Z" transform="translate(0.45 -1.52)"/><path class="cls-1" d="M392,108.55h43.87l-3.37,24.3H388.65l-2.27,16.2h47.68l-3.51,25.83H355.18L370.31,66.67h75.35L442,92.5H394.31Z" transform="translate(0.45 -1.52)"/><path class="cls-2" d="M19.07,136.65C23.81,143.52,32.83,147,40.93,147c7.33,0,13.75-2.6,14.82-8.25,1.23-6.73-8.25-9.63-17-10.86-17-2.75-32.25-16.35-28.43-36.83,4.17-22.16,23.73-29.95,43.6-29.95,13.14,0,25.37,3.66,34.69,17.27L68.75,92.17C64.16,87,57,84.53,50.75,84.38c-6.88-.16-12.68,2.44-13.3,7.94-.76,6.27,4.74,9,13,10.85,18.79,3.52,37.13,10.7,32.09,37.6-4,21.09-22.31,31.64-45.7,31.64-13,0-29-6.57-37.29-19.56Z" transform="translate(0.45 -1.52)"/><path class="cls-2" d="M180,170.88H150.66l-4.12-21.7H117.65L108,170.88H78.68L131.56,62.67h24.91Zm-36.53-46-3.21-31.64H139.2l-11.92,31.64Z" transform="translate(0.45 -1.52)"/><path class="cls-2" d="M202.17,62.67h27.51l-11.46,81.16h44l-3.66,27H187Z" transform="translate(0.45 -1.52)"/><path class="cls-2" d="M284.24,62.67h27.51l-11.46,81.16h44l-3.66,27H269.11Z" transform="translate(0.45 -1.52)"/><path class="cls-2" d="M388,104.55h43.87l-3.37,24.3H384.65l-2.27,16.2h47.68l-3.51,25.83H351.18L366.31,62.67h75.35L438,88.5H390.31Z" transform="translate(0.45 -1.52)"/></svg>