<svg id="Calque_1" data-name="Calque 1" xmlns="http://www.w3.org/2000/svg" xmlns:xlink="http://www.w3.org/1999/xlink" viewBox="0 0 500 500"><defs><style>.cls-1{fill:url(#Dégradé_sans_nom_22);}.cls-2{fill:#fff;}</style><linearGradient id="Dégradé_sans_nom_22" x1="3.76" y1="293.42" x2="496.24" y2="206.58" gradientUnits="userSpaceOnUse"><stop offset="0" stop-color="#e41c39"/><stop offset="0.25" stop-color="#e43534"/><stop offset="1" stop-color="#e4b31c"/></linearGradient></defs><title>LaSalle-Logo-Rond</title><circle class="cls-1" cx="250" cy="250" r="250"/><path class="cls-2" d="M29.49,331.29l-3-84.29,2.95-.52,2.8,81.33,41.12-7.25.18,3Z"/><path class="cls-2" d="M143,311.28l-3.14.55-11.89-28.2-38,6.7L80.6,322.27l-3.13.56,27.2-89.62,5.23-.92Zm-16-30.47-19.09-45.87-.66.11L91,287.15Z"/><path class="cls-2" d="M159.2,281.59c4.52,4.59,11.84,6,18,5,5.58-1,10.1-3.82,10.16-8.26,0-5.28-7.56-6.21-14.35-6-13.26.2-26.7-8.09-26.53-24.12.16-17.44,14-26,29.05-28.65,10-1.76,19.79-.62,28.69,8.48L191,241.12c-4.18-3.32-10-4.23-14.75-3.49-5.25.81-9.33,3.56-9.05,7.83.26,4.86,4.82,6.26,11.3,6.51,14.76.15,29.67,3.15,29.43,24.25-.19,16.57-12.69,27-30.46,30.17-9.85,1.74-22.95-1.1-31-9.87Z"/><path class="cls-2" d="M286.12,286,263.82,290,257.77,274l-22,3.87-4.41,17.78-22.3,3.94,25.72-89.36,18.94-3.34Zm-33.94-30.1-6.67-23.61-.82.15-4.82,25.63Z"/><path class="cls-2" d="M288.46,200.8l20.91-3.68,2.17,63.22,33.48-5.9.82,21.07-54.36,9.58Z"/><path class="cls-2" d="M350.84,189.8l20.92-3.68,2.17,63.23,33.48-5.9.84,21.05-54.4,9.59Z"/><path class="cls-2" d="M435.34,207.73l33.35-5.88.69,18.93-33.33,5.88.43,12.63,36.24-6.39.79,20.09-57.28,10.1-3-84.29,57.28-10.1.68,20.19-36.25,6.39Z"/></svg>